#N canvas 694 186 736 679 10;
#X msg 352 189 40;
#X floatatom 352 213 5 0 0 0 - - -;
#N canvas 776 212 617 662 sinte1 0;
#X obj 91 164 phasor~ 440;
#X obj 199 165 phasor~ 441;
#X obj 91 207 *~ 0.5;
#X obj 199 209 *~ 0.5;
#X obj 91 228 +~;
#X floatatom 91 127 5 0 0 0 - - -;
#X obj 199 187 comb~ 13 0.4 0.7;
#X obj 363 95 * 0.5;
#X obj 366 156 phasor~ 440;
#X obj 474 157 phasor~ 441;
#X obj 366 199 *~ 0.5;
#X obj 474 201 *~ 0.5;
#X obj 366 220 +~;
#X floatatom 366 119 5 0 0 0 - - -;
#X obj 90 477 *~ 0.5;
#X obj 135 476 *~ 0.5;
#X obj 90 500 +~;
#X msg 91 55 80;
#X floatatom 91 79 5 0 0 0 - - -;
#X obj 199 143 + 0.98;
#X obj 91 31 loadbang;
#X obj 90 553 outlet~;
#X obj 274 30 inlet;
#X obj 91 526 lop~ 400;
#X obj 90 434 lop~;
#X obj 111 401 snapshot~;
#X obj 156 379 metro 20;
#X floatatom 151 423 7 0 0 0 - - -;
#X obj 111 311 osc~;
#X obj 111 332 +~ 1;
#X obj 111 378 +~ 200;
#X obj 367 441 lop~;
#X obj 388 406 snapshot~;
#X obj 433 384 metro 20;
#X floatatom 428 428 7 0 0 0 - - -;
#X obj 388 316 osc~;
#X obj 388 337 +~ 1;
#X obj 129 247 loadbang;
#X obj 406 251 loadbang;
#X obj 129 268 t b b;
#X obj 406 273 t b b;
#X obj 474 135 + 1.03;
#X obj 474 179 comb~ 13 0.43 0.68;
#X obj 366 178 comb~ 10 0.15 0.2;
#X obj 91 186 comb~ 9.5 0.2 0.3;
#X msg 111 290 0.02;
#X msg 388 295 0.01;
#X obj 388 360 *~ 250;
#X obj 388 383 +~ 10;
#X obj 111 355 *~ 1000;
#X connect 0 0 44 0;
#X connect 1 0 6 0;
#X connect 2 0 4 0;
#X connect 3 0 4 1;
#X connect 4 0 24 0;
#X connect 5 0 0 0;
#X connect 5 0 19 0;
#X connect 6 0 3 0;
#X connect 7 0 13 0;
#X connect 8 0 43 0;
#X connect 9 0 42 0;
#X connect 10 0 12 0;
#X connect 11 0 12 1;
#X connect 12 0 31 0;
#X connect 13 0 8 0;
#X connect 13 0 41 0;
#X connect 14 0 16 0;
#X connect 15 0 16 1;
#X connect 16 0 23 0;
#X connect 17 0 18 0;
#X connect 18 0 5 0;
#X connect 18 0 7 0;
#X connect 19 0 1 0;
#X connect 20 0 17 0;
#X connect 22 0 5 0;
#X connect 22 0 7 0;
#X connect 23 0 21 0;
#X connect 24 0 14 0;
#X connect 25 0 27 0;
#X connect 25 0 24 1;
#X connect 26 0 25 0;
#X connect 28 0 29 0;
#X connect 29 0 49 0;
#X connect 30 0 25 0;
#X connect 31 0 15 0;
#X connect 32 0 34 0;
#X connect 32 0 31 1;
#X connect 33 0 32 0;
#X connect 35 0 36 0;
#X connect 36 0 47 0;
#X connect 37 0 39 0;
#X connect 38 0 40 0;
#X connect 39 0 45 0;
#X connect 39 1 26 0;
#X connect 40 0 46 0;
#X connect 40 1 33 0;
#X connect 41 0 9 0;
#X connect 42 0 11 0;
#X connect 43 0 10 0;
#X connect 44 0 2 0;
#X connect 45 0 28 0;
#X connect 46 0 35 0;
#X connect 47 0 48 0;
#X connect 48 0 32 0;
#X connect 49 0 30 0;
#X restore 352 286 pd sinte1;
#X obj 337 571 dac~;
#N canvas 776 212 617 662 sinte1 0;
#X obj 91 164 phasor~ 440;
#X obj 199 165 phasor~ 441;
#X obj 91 207 *~ 0.5;
#X obj 199 209 *~ 0.5;
#X obj 91 228 +~;
#X floatatom 91 127 5 0 0 0 - - -;
#X obj 199 187 comb~ 13 0.4 0.7;
#X obj 363 95 * 0.5;
#X obj 366 156 phasor~ 440;
#X obj 474 157 phasor~ 441;
#X obj 366 199 *~ 0.5;
#X obj 474 201 *~ 0.5;
#X obj 366 220 +~;
#X floatatom 366 119 5 0 0 0 - - -;
#X obj 90 477 *~ 0.5;
#X obj 135 476 *~ 0.5;
#X obj 90 500 +~;
#X msg 91 55 80;
#X floatatom 91 79 5 0 0 0 - - -;
#X obj 199 143 + 0.98;
#X obj 91 31 loadbang;
#X obj 90 553 outlet~;
#X obj 274 30 inlet;
#X obj 91 526 lop~ 400;
#X obj 90 434 lop~;
#X obj 111 401 snapshot~;
#X obj 156 379 metro 20;
#X floatatom 151 423 7 0 0 0 - - -;
#X obj 111 311 osc~;
#X obj 111 332 +~ 1;
#X obj 111 378 +~ 200;
#X obj 367 441 lop~;
#X obj 388 406 snapshot~;
#X obj 433 384 metro 20;
#X floatatom 428 428 7 0 0 0 - - -;
#X obj 388 316 osc~;
#X obj 388 337 +~ 1;
#X obj 129 247 loadbang;
#X obj 406 251 loadbang;
#X obj 129 268 t b b;
#X obj 406 273 t b b;
#X obj 474 135 + 1.03;
#X obj 474 179 comb~ 13 0.43 0.68;
#X obj 366 178 comb~ 10 0.15 0.2;
#X obj 91 186 comb~ 9.5 0.2 0.3;
#X msg 111 290 0.02;
#X msg 388 295 0.01;
#X obj 388 360 *~ 250;
#X obj 388 383 +~ 10;
#X obj 111 355 *~ 1000;
#X connect 0 0 44 0;
#X connect 1 0 6 0;
#X connect 2 0 4 0;
#X connect 3 0 4 1;
#X connect 4 0 24 0;
#X connect 5 0 0 0;
#X connect 5 0 19 0;
#X connect 6 0 3 0;
#X connect 7 0 13 0;
#X connect 8 0 43 0;
#X connect 9 0 42 0;
#X connect 10 0 12 0;
#X connect 11 0 12 1;
#X connect 12 0 31 0;
#X connect 13 0 8 0;
#X connect 13 0 41 0;
#X connect 14 0 16 0;
#X connect 15 0 16 1;
#X connect 16 0 23 0;
#X connect 17 0 18 0;
#X connect 18 0 5 0;
#X connect 18 0 7 0;
#X connect 19 0 1 0;
#X connect 20 0 17 0;
#X connect 22 0 5 0;
#X connect 22 0 7 0;
#X connect 23 0 21 0;
#X connect 24 0 14 0;
#X connect 25 0 27 0;
#X connect 25 0 24 1;
#X connect 26 0 25 0;
#X connect 28 0 29 0;
#X connect 29 0 49 0;
#X connect 30 0 25 0;
#X connect 31 0 15 0;
#X connect 32 0 34 0;
#X connect 32 0 31 1;
#X connect 33 0 32 0;
#X connect 35 0 36 0;
#X connect 36 0 47 0;
#X connect 37 0 39 0;
#X connect 38 0 40 0;
#X connect 39 0 45 0;
#X connect 39 1 26 0;
#X connect 40 0 46 0;
#X connect 40 1 33 0;
#X connect 41 0 9 0;
#X connect 42 0 11 0;
#X connect 43 0 10 0;
#X connect 44 0 2 0;
#X connect 45 0 28 0;
#X connect 46 0 35 0;
#X connect 47 0 48 0;
#X connect 48 0 32 0;
#X connect 49 0 30 0;
#X restore 414 286 pd sinte1;
#N canvas 776 212 617 662 sinte1 0;
#X obj 91 164 phasor~ 440;
#X obj 199 165 phasor~ 441;
#X obj 91 207 *~ 0.5;
#X obj 199 209 *~ 0.5;
#X obj 91 228 +~;
#X floatatom 91 127 5 0 0 0 - - -;
#X obj 199 187 comb~ 13 0.4 0.7;
#X obj 363 95 * 0.5;
#X obj 366 156 phasor~ 440;
#X obj 474 157 phasor~ 441;
#X obj 366 199 *~ 0.5;
#X obj 474 201 *~ 0.5;
#X obj 366 220 +~;
#X floatatom 366 119 5 0 0 0 - - -;
#X obj 90 477 *~ 0.5;
#X obj 135 476 *~ 0.5;
#X obj 90 500 +~;
#X msg 91 55 80;
#X floatatom 91 79 5 0 0 0 - - -;
#X obj 199 143 + 0.98;
#X obj 91 31 loadbang;
#X obj 90 553 outlet~;
#X obj 274 30 inlet;
#X obj 91 526 lop~ 400;
#X obj 90 434 lop~;
#X obj 111 401 snapshot~;
#X obj 156 379 metro 20;
#X floatatom 151 423 7 0 0 0 - - -;
#X obj 111 311 osc~;
#X obj 111 332 +~ 1;
#X obj 111 378 +~ 200;
#X obj 367 441 lop~;
#X obj 388 406 snapshot~;
#X obj 433 384 metro 20;
#X floatatom 428 428 7 0 0 0 - - -;
#X obj 388 316 osc~;
#X obj 388 337 +~ 1;
#X obj 129 247 loadbang;
#X obj 406 251 loadbang;
#X obj 129 268 t b b;
#X obj 406 273 t b b;
#X obj 474 135 + 1.03;
#X obj 474 179 comb~ 13 0.43 0.68;
#X obj 366 178 comb~ 10 0.15 0.2;
#X obj 91 186 comb~ 9.5 0.2 0.3;
#X msg 111 290 0.02;
#X msg 388 295 0.01;
#X obj 388 360 *~ 250;
#X obj 388 383 +~ 10;
#X obj 111 355 *~ 1000;
#X connect 0 0 44 0;
#X connect 1 0 6 0;
#X connect 2 0 4 0;
#X connect 3 0 4 1;
#X connect 4 0 24 0;
#X connect 5 0 0 0;
#X connect 5 0 19 0;
#X connect 6 0 3 0;
#X connect 7 0 13 0;
#X connect 8 0 43 0;
#X connect 9 0 42 0;
#X connect 10 0 12 0;
#X connect 11 0 12 1;
#X connect 12 0 31 0;
#X connect 13 0 8 0;
#X connect 13 0 41 0;
#X connect 14 0 16 0;
#X connect 15 0 16 1;
#X connect 16 0 23 0;
#X connect 17 0 18 0;
#X connect 18 0 5 0;
#X connect 18 0 7 0;
#X connect 19 0 1 0;
#X connect 20 0 17 0;
#X connect 22 0 5 0;
#X connect 22 0 7 0;
#X connect 23 0 21 0;
#X connect 24 0 14 0;
#X connect 25 0 27 0;
#X connect 25 0 24 1;
#X connect 26 0 25 0;
#X connect 28 0 29 0;
#X connect 29 0 49 0;
#X connect 30 0 25 0;
#X connect 31 0 15 0;
#X connect 32 0 34 0;
#X connect 32 0 31 1;
#X connect 33 0 32 0;
#X connect 35 0 36 0;
#X connect 36 0 47 0;
#X connect 37 0 39 0;
#X connect 38 0 40 0;
#X connect 39 0 45 0;
#X connect 39 1 26 0;
#X connect 40 0 46 0;
#X connect 40 1 33 0;
#X connect 41 0 9 0;
#X connect 42 0 11 0;
#X connect 43 0 10 0;
#X connect 44 0 2 0;
#X connect 45 0 28 0;
#X connect 46 0 35 0;
#X connect 47 0 48 0;
#X connect 48 0 32 0;
#X connect 49 0 30 0;
#X restore 477 286 pd sinte1;
#X floatatom 414 264 5 0 0 0 - - -;
#X floatatom 477 265 5 0 0 0 - - -;
#X obj 352 309 *~ 0.5;
#X obj 414 309 *~ 0.25;
#X obj 477 310 *~ 0.125;
#X obj 352 334 +~;
#X obj 352 358 +~;
#X floatatom 352 263 5 0 0 0 - - -;
#X obj 352 165 loadbang;
#X obj 414 242 * 1.502;
#X obj 477 243 * 2.01;
#X obj 337 453 +~;
#X obj 352 380 *~ 0.5;
#X obj 81 360 *~ 0.25;
#X floatatom 143 243 5 0 0 0 - - -;
#X floatatom 206 244 5 0 0 0 - - -;
#X obj 81 288 *~ 0.5;
#X obj 143 288 *~ 0.25;
#X obj 206 289 *~ 0.125;
#X obj 81 313 +~;
#X obj 81 337 +~;
#X floatatom 81 242 5 0 0 0 - - -;
#X obj 143 221 * 1.502;
#X obj 206 222 * 2.01;
#N canvas 675 134 463 437 sinte2 0;
#X obj 66 52 inlet;
#X msg 145 122 0 10000;
#X obj 114 148 line;
#X msg 114 99 1 1;
#X obj 66 147 osc~;
#X floatatom 76 77 5 0 0 0 - - -;
#X obj 145 99 delay 1;
#X obj 66 170 *~;
#X obj 66 193 outlet~;
#X floatatom 114 172 5 0 0 0 - - -;
#X obj 114 77 bng 15 250 50 0 empty empty empty 17 7 0 10 -262144 -1
-1;
#X connect 0 0 4 0;
#X connect 0 0 5 0;
#X connect 0 0 10 0;
#X connect 1 0 2 0;
#X connect 2 0 7 1;
#X connect 2 0 9 0;
#X connect 3 0 2 0;
#X connect 4 0 7 0;
#X connect 6 0 1 0;
#X connect 7 0 8 0;
#X connect 10 0 3 0;
#X connect 10 0 6 0;
#X restore 80 264 pd sinte2;
#N canvas 675 134 450 300 sinte2 0;
#X obj 141 48 inlet;
#X msg 257 207 0 10000;
#X obj 137 174 line;
#X msg 146 130 1 1;
#X obj 56 154 osc~;
#X floatatom 137 89 5 0 0 0 - - -;
#X obj 230 164 delay 1;
#X obj 89 222 *~;
#X obj 111 280 outlet~;
#X floatatom 151 215 5 0 0 0 - - -;
#X obj 218 93 bng 15 250 50 0 empty empty empty 17 7 0 10 -262144 -1
-1;
#X connect 0 0 4 0;
#X connect 0 0 5 0;
#X connect 0 0 10 0;
#X connect 1 0 2 0;
#X connect 2 0 7 1;
#X connect 2 0 9 0;
#X connect 3 0 2 0;
#X connect 4 0 7 0;
#X connect 6 0 1 0;
#X connect 7 0 8 0;
#X connect 10 0 3 0;
#X connect 10 0 6 0;
#X restore 143 265 pd sinte2;
#N canvas 859 101 450 300 sinte2 0;
#X obj 131 38 inlet;
#X msg 247 197 0 10000;
#X obj 127 164 line;
#X msg 136 120 1 1;
#X obj 46 144 osc~;
#X floatatom 127 79 5 0 0 0 - - -;
#X obj 220 154 delay 1;
#X obj 79 212 *~;
#X obj 101 270 outlet~;
#X floatatom 141 205 5 0 0 0 - - -;
#X obj 208 83 bng 15 250 50 0 empty empty empty 17 7 0 10 -262144 -1
-1;
#X connect 0 0 4 0;
#X connect 0 0 5 0;
#X connect 0 0 10 0;
#X connect 1 0 2 0;
#X connect 2 0 7 1;
#X connect 2 0 9 0;
#X connect 3 0 2 0;
#X connect 4 0 7 0;
#X connect 6 0 1 0;
#X connect 7 0 8 0;
#X connect 10 0 3 0;
#X connect 10 0 6 0;
#X restore 206 267 pd sinte2;
#X obj 430 389 noise~;
#X obj 337 478 *~ 0.8;
#X obj 337 547 +~;
#X obj 430 503 vcf~;
#X obj 430 526 *~ 0.1;
#X obj 440 436 sig~;
#X msg 451 481 2;
#X obj 451 458 loadbang;
#X obj 452 76 udpreceive 57120;
#X obj 452 98 unpackOSC;
#X obj 507 143 print;
#X obj 452 120 routeOSC /note;
#X obj 452 143 mtof;
#X obj 440 415 * 0.125;
#X obj 452 165 * 0.5;
#X connect 0 0 1 0;
#X connect 1 0 13 0;
#X connect 1 0 15 0;
#X connect 1 0 16 0;
#X connect 1 0 27 0;
#X connect 1 0 28 0;
#X connect 1 0 29 0;
#X connect 1 0 46 0;
#X connect 2 0 8 0;
#X connect 4 0 9 0;
#X connect 5 0 10 0;
#X connect 6 0 4 0;
#X connect 7 0 5 0;
#X connect 8 0 11 0;
#X connect 9 0 11 1;
#X connect 10 0 12 1;
#X connect 11 0 12 0;
#X connect 12 0 18 0;
#X connect 13 0 2 0;
#X connect 14 0 0 0;
#X connect 15 0 6 0;
#X connect 16 0 7 0;
#X connect 17 0 34 0;
#X connect 18 0 17 1;
#X connect 19 0 17 0;
#X connect 20 0 31 0;
#X connect 21 0 32 0;
#X connect 22 0 25 0;
#X connect 23 0 25 1;
#X connect 24 0 26 1;
#X connect 25 0 26 0;
#X connect 26 0 19 0;
#X connect 27 0 30 0;
#X connect 28 0 20 0;
#X connect 29 0 21 0;
#X connect 30 0 22 0;
#X connect 31 0 23 0;
#X connect 32 0 24 0;
#X connect 33 0 36 0;
#X connect 34 0 35 0;
#X connect 35 0 3 0;
#X connect 35 0 3 1;
#X connect 36 0 37 0;
#X connect 37 0 35 1;
#X connect 38 0 36 1;
#X connect 39 0 36 2;
#X connect 40 0 39 0;
#X connect 41 0 42 0;
#X connect 42 0 44 0;
#X connect 44 0 43 0;
#X connect 44 0 45 0;
#X connect 45 0 47 0;
#X connect 45 0 1 0;
#X connect 46 0 38 0;
